<svg width="25" height="20" viewBox="0 0 25 20" fill="none" xmlns="http://www.w3.org/2000/svg">
<path d="M24.9504 9.65885C23.9702 6.90223 22.2686 4.51829 20.0559 2.80169C17.8432 1.08509 15.2163 0.111061 12.5 0C9.78369 0.111061 7.15684 1.08509 4.94412 2.80169C2.7314 4.51829 1.02981 6.90223 0.0496469 9.65885C-0.016549 9.85792 -0.016549 10.0759 0.0496469 10.275C1.02981 13.0316 2.7314 15.4155 4.94412 17.1321C7.15684 18.8488 9.78369 19.8228 12.5 19.9338C15.2163 19.8228 17.8432 18.8488 20.0559 17.1321C22.2686 15.4155 23.9702 13.0316 24.9504 10.275C25.0166 10.0759 25.0166 9.85792 24.9504 9.65885ZM12.5 15.8565C11.4287 15.8565 10.3814 15.511 9.49058 14.8639C8.59978 14.2167 7.9055 13.2969 7.49551 12.2207C7.08552 11.1446 6.97825 9.96039 7.18726 8.81793C7.39627 7.67547 7.91217 6.62605 8.66973 5.80238C9.42729 4.97872 10.3925 4.41779 11.4432 4.19054C12.494 3.96329 13.5831 4.07993 14.5729 4.52569C15.5627 4.97146 16.4087 5.72633 17.0039 6.69486C17.5991 7.66339 17.9168 8.80208 17.9168 9.96692C17.9146 11.5282 17.3432 13.0248 16.3278 14.1288C15.3125 15.2328 13.936 15.8541 12.5 15.8565Z" fill="#16C79A"/>
</svg>
