<svg width="57" height="60" viewBox="0 0 57 60" fill="none" xmlns="http://www.w3.org/2000/svg">
<path d="M6.00274 25.1311H50.9976C52.3873 25.1311 53.5134 24.2039 53.5134 23.0597C53.5134 21.9155 52.3873 20.9884 50.9976 20.9884H48.8539C47.7104 13.3288 40.3185 7.24256 31.0156 6.30106V2.07136C31.0156 0.927139 29.8895 0 28.4998 0C27.1105 0 25.9841 0.927139 25.9841 2.07136V6.30106C16.6812 7.24256 9.2893 13.3285 8.14582 20.9884H6.00207C4.61271 20.9884 3.48633 21.9155 3.48633 23.0597C3.48633 24.2039 4.61338 25.1311 6.00274 25.1311ZM28.5005 10.3123C36.1806 10.3123 42.5695 14.9417 43.7751 20.9884H13.2256C14.4311 14.9417 20.8201 10.3123 28.5005 10.3123Z" fill="#0F244B"/>
<path d="M54.4843 55.8573H52.1762V42.7219H54.4843C55.874 42.7219 57 41.7947 57 40.6505C57 39.5063 55.874 38.5792 54.4843 38.5792H49.0137V31.9832H50.9974C52.3871 31.9832 53.5132 31.056 53.5132 29.9118C53.5132 28.7676 52.3871 27.8405 50.9974 27.8405H6.00256C4.6132 27.8405 3.48682 28.7676 3.48682 29.9118C3.48682 31.056 4.6132 31.9832 6.00256 31.9832H7.98631V38.5792H2.51574C1.12638 38.5792 0 39.5063 0 40.6505C0 41.7947 1.12638 42.7219 2.51574 42.7219H4.82352V55.8573H2.51574C1.12638 55.8573 0 56.7844 0 57.9286C0 59.0728 1.12638 60 2.51574 60H54.4843C55.874 60 57 59.0728 57 57.9286C57 56.7844 55.874 55.8573 54.4843 55.8573ZM47.1447 55.8573H41.5956V42.7219H47.1447V55.8573ZM34.9832 38.5792H31.0157V31.9832H34.9832V38.5792ZM25.9846 38.5792H22.0171V31.9832H25.9846V38.5792ZM20.4359 42.7219H25.9846V55.8573H20.4359V42.7219ZM31.0157 42.7219H36.5641V55.8573H31.0157V42.7219ZM43.9825 38.5792H40.0151V31.9832H43.9825V38.5792ZM13.0178 31.9834H16.9853V38.5794H13.0178V31.9834ZM9.855 42.7219H15.4041V55.8573H9.855V42.7219Z" fill="#0F244B"/>
</svg>
