<svg width="10" height="10" viewBox="0 0 10 10" fill="none" xmlns="http://www.w3.org/2000/svg">
<path d="M6.5625 5C6.5625 5.4144 6.39788 5.81183 6.10485 6.10485C5.81183 6.39788 5.4144 6.5625 5 6.5625C4.5856 6.5625 4.18817 6.39788 3.89515 6.10485C3.60212 5.81183 3.4375 5.4144 3.4375 5C3.4375 4.91094 3.44687 4.82396 3.46302 4.73958H2.91667V6.82135C2.91667 6.96615 3.03385 7.08333 3.17865 7.08333H6.82188C6.89127 7.0832 6.95777 7.05553 7.00679 7.00642C7.0558 6.9573 7.08333 6.89075 7.08333 6.82135V4.73958H6.53698C6.55312 4.82396 6.5625 4.91094 6.5625 5ZM5 6.04167C5.13683 6.04163 5.27231 6.01465 5.39871 5.96226C5.52511 5.90986 5.63995 5.83309 5.73668 5.73631C5.83341 5.63953 5.91012 5.52465 5.96245 5.39823C6.01478 5.2718 6.0417 5.13631 6.04167 4.99948C6.04163 4.86265 6.01465 4.72717 5.96226 4.60077C5.90986 4.47437 5.83309 4.35953 5.73631 4.2628C5.63953 4.16607 5.52465 4.08935 5.39823 4.03702C5.2718 3.98469 5.13631 3.95778 4.99948 3.95781C4.72314 3.95788 4.45815 4.06772 4.2628 4.26317C4.06745 4.45862 3.95774 4.72366 3.95781 5C3.95788 5.27634 4.06772 5.54133 4.26317 5.73668C4.45862 5.93203 4.72366 6.04174 5 6.04167ZM6.25 3.90625H6.87448C6.91597 3.90625 6.95576 3.8898 6.98515 3.86052C7.01453 3.83123 7.03111 3.79149 7.03125 3.75V3.12552C7.03125 3.08394 7.01473 3.04407 6.98533 3.01467C6.95593 2.98527 6.91606 2.96875 6.87448 2.96875H6.25C6.20842 2.96875 6.16855 2.98527 6.13915 3.01467C6.10975 3.04407 6.09323 3.08394 6.09323 3.12552V3.75C6.09375 3.83594 6.16406 3.90625 6.25 3.90625ZM5 0C3.67392 0 2.40215 0.526784 1.46447 1.46447C0.526784 2.40215 0 3.67392 0 5C0 6.32608 0.526784 7.59785 1.46447 8.53553C2.40215 9.47322 3.67392 10 5 10C5.65661 10 6.30679 9.87067 6.91342 9.6194C7.52005 9.36812 8.07124 8.99983 8.53553 8.53553C8.99983 8.07124 9.36812 7.52005 9.6194 6.91342C9.87067 6.30679 10 5.65661 10 5C10 4.34339 9.87067 3.69321 9.6194 3.08658C9.36812 2.47995 8.99983 1.92876 8.53553 1.46447C8.07124 1.00017 7.52005 0.631876 6.91342 0.380602C6.30679 0.129329 5.65661 0 5 0ZM7.60417 7.02552C7.60417 7.34375 7.34375 7.60417 7.02552 7.60417H2.97448C2.65625 7.60417 2.39583 7.34375 2.39583 7.02552V2.97448C2.39583 2.65625 2.65625 2.39583 2.97448 2.39583H7.02552C7.34375 2.39583 7.60417 2.65625 7.60417 2.97448V7.02552Z" fill="#0F244B"/>
</svg>
