<svg width="10" height="10" viewBox="0 0 10 10" fill="none" xmlns="http://www.w3.org/2000/svg">
<path d="M5 0C2.23854 0 0 2.23854 0 5C0 7.76146 2.23854 10 5 10C7.76146 10 10 7.76146 10 5C10 2.23854 7.76146 0 5 0ZM3.77604 7.0724H2.76354V3.81406H3.77604V7.0724ZM3.26354 3.41406C2.94375 3.41406 2.73698 3.1875 2.73698 2.90729C2.73698 2.62135 2.95 2.40156 3.27656 2.40156C3.60312 2.40156 3.80312 2.62135 3.80937 2.90729C3.80937 3.1875 3.60312 3.41406 3.26354 3.41406ZM7.47396 7.0724H6.46146V5.26667C6.46146 4.84635 6.31458 4.56094 5.94844 4.56094C5.66875 4.56094 5.5026 4.75417 5.42917 4.9401C5.40208 5.00625 5.39531 5.1 5.39531 5.19323V7.07187H4.38229V4.85313C4.38229 4.44635 4.36927 4.10625 4.35573 3.81354H5.23542L5.28177 4.26615H5.30208C5.43542 4.05365 5.76198 3.7401 6.30833 3.7401C6.97448 3.7401 7.47396 4.18646 7.47396 5.14583V7.0724Z" fill="#0F244B"/>
</svg>
