<svg width="60" height="57" viewBox="0 0 60 57" fill="none" xmlns="http://www.w3.org/2000/svg">
<path d="M55.6826 40.7948L40.3896 45.8911C40.1659 45.9654 39.9304 46.0025 39.6933 46.0005H39.4551C39.7608 44.9672 39.6205 43.8607 39.0654 42.9257L38.9873 42.7913C38.0847 41.2805 36.402 40.3419 34.5732 40.3291H30.2529C28.7634 40.3192 27.3247 39.8132 26.1875 38.8993C24.6882 37.7058 22.7961 37.0487 20.8399 37.0419H20.333C20.0813 37.0419 14.9546 37.0863 11.6461 39.7659C11.2739 39.2504 10.6582 38.942 10.0001 38.9414H2.00003C0.896014 38.9426 0.00128906 39.7923 0 40.841V54.1383C0.00128906 55.1869 0.895896 56.0367 2.00003 56.0379H10.0001C10.597 56.0358 11.1613 55.7791 11.5372 55.3387C13.3487 56.5142 15.5159 57.0934 17.707 56.9878H39.4267C40.6858 56.9835 41.9178 56.6409 42.9804 55.9995L58.4628 46.5753C59.2336 46.0932 59.765 45.3345 59.9355 44.473C60.1158 43.5835 59.9074 42.6628 59.3584 41.9222C58.5288 40.8176 57.0355 40.3596 55.6826 40.7948ZM9.99994 54.1383H2.00003V40.8411H10.0001V54.1383H9.99994ZM57.9716 44.1145C57.9071 44.4672 57.6933 44.7793 57.3798 44.978L41.9081 54.3956C41.1662 54.844 40.3061 55.084 39.4267 55.088H17.707C13.8838 55.088 12.3955 53.6601 12 53.1749V42.1554C14.4424 38.992 20.2743 38.9415 20.3329 38.9415H20.8398C22.3274 38.9479 23.7657 39.4489 24.9052 40.3574C26.4022 41.5566 28.2946 42.2187 30.2528 42.2287H34.5732C35.6805 42.2307 36.7005 42.8001 37.2412 43.7179L37.3193 43.8523C37.7145 44.5239 37.6953 45.3463 37.2691 46.0005H32.3467C30.6652 46.0051 29.026 46.5019 27.6524 47.4233L27.0528 47.8231C26.7604 48.018 26.5997 48.3461 26.6312 48.684C26.6627 49.022 26.8816 49.3182 27.2054 49.4613C27.5293 49.6043 27.9088 49.5725 28.2012 49.3776L28.7989 48.9797C29.8366 48.282 31.0754 47.905 32.3467 47.9H39.6934C40.1604 47.9021 40.6244 47.8274 41.0645 47.6793L56.3351 42.5905C56.851 42.424 57.4207 42.6023 57.7316 43.0273C57.9635 43.3438 58.0502 43.7361 57.9716 44.1145Z" fill="#0F244B"/>
<path d="M4.99987 51.2888C5.26459 51.2849 5.51795 51.1866 5.7099 51.0133C5.79814 50.921 5.86916 50.8149 5.9199 50.6998C5.97111 50.5856 5.9983 50.463 5.99994 50.3389C5.99607 50.0875 5.89248 49.8467 5.7099 49.6645C5.30889 49.3129 4.69085 49.3129 4.28995 49.6645C4.00156 49.9362 3.91484 50.3467 4.07058 50.7031C4.22632 51.0595 4.59358 51.291 4.99987 51.2888Z" fill="#0F244B"/>
<path d="M42 11.3976C43.6568 11.3976 45 10.1218 45 8.54821C45 6.97461 43.6569 5.69885 42 5.69885C40.3431 5.69885 39 6.9745 39 8.54821C39.0019 10.1211 40.3439 11.3959 42 11.3976ZM42 7.59846C42.5523 7.59846 43 8.02364 43 8.54821C43 9.07278 42.5523 9.49796 42 9.49796C41.4477 9.49796 41 9.07278 41 8.54821C41.0006 8.02386 41.4479 7.59891 42 7.59846Z" fill="#0F244B"/>
<path d="M38.0001 28.4938H46.0001C46.2653 28.4939 46.5197 28.3939 46.7073 28.2157C46.8948 28.0376 47.0002 27.7959 47.0002 27.544V23.7449C47.0003 23.493 46.8949 23.2514 46.7073 23.0732C46.5198 22.8951 46.2654 22.795 46.0001 22.795H45.0001V14.2471C45.0003 13.9952 44.8949 13.7536 44.7073 13.5754C44.5198 13.3973 44.2654 13.2972 44.0001 13.2972H38.0001C37.7349 13.2971 37.4805 13.3972 37.2929 13.5754C37.1054 13.7535 37 13.9951 37 14.2471V18.0462C36.9999 18.2981 37.1052 18.5397 37.2929 18.7179C37.4804 18.896 37.7348 18.996 38.0001 18.996H39V22.7951H38.0001C37.7349 22.795 37.4805 22.8951 37.2929 23.0733C37.1054 23.2514 37 23.493 37 23.745V27.5441C36.9999 27.7959 37.1052 28.0376 37.2929 28.2158C37.4805 28.3939 37.7349 28.4939 38.0001 28.4938ZM39 24.6947H40C40.2652 24.6948 40.5196 24.5948 40.7072 24.4166C40.8947 24.2385 41.0001 23.9969 41.0001 23.7449V18.0462C41.0002 17.7943 40.8948 17.5527 40.7072 17.3745C40.5197 17.1964 40.2653 17.0963 40 17.0963H39V15.1967H43V23.7448C42.9999 23.9966 43.1052 24.2383 43.2928 24.4165C43.4803 24.5946 43.7347 24.6946 44.0001 24.6946H45V26.5942H39V24.6947Z" fill="#0F244B"/>
<path d="M31.0001 30.6225V36.0921C31.0001 36.4564 31.2194 36.7887 31.5648 36.9472C31.9101 37.1058 32.3205 37.0627 32.6211 36.8364L37.0195 33.5275C43.7807 35.3759 51.0561 33.3137 55.6447 28.2479C60.2333 23.1821 61.294 16.0417 58.3601 9.96781C55.4265 3.89408 49.0359 0.000445726 42.0001 5.11085e-07C34.2992 -0.00178035 27.4507 4.65061 24.9641 11.573C22.4775 18.4954 24.904 26.1534 31.0001 30.6225ZM27.7682 10.1899C31.348 3.53857 39.4882 0.346823 46.9655 2.6625C54.4429 4.97817 59.0376 12.1141 57.8013 19.4911C56.5649 26.8681 49.8649 32.2965 42.0001 32.2929C40.3427 32.2955 38.695 32.0514 37.1172 31.5694C36.799 31.4728 36.451 31.5326 36.1885 31.729L33.0001 34.1281V30.1466C33.0002 29.8422 32.8466 29.5563 32.587 29.3777C26.2317 24.9774 24.1883 16.8412 27.7682 10.1899Z" fill="#0F244B"/>
</svg>
