<svg width="58" height="61" viewBox="0 0 58 61" fill="none" xmlns="http://www.w3.org/2000/svg">
<path d="M15.0388 19.3685C15.2812 20.3313 15.6527 20.9546 16.0861 21.343C17.1173 27.5431 23.5599 32.8269 28.7345 32.6059C35.3171 32.3269 39.9828 26.1989 41.0301 21.343C41.4635 20.9569 41.8808 20.1313 42.1312 19.1615C42.4112 18.0476 42.7128 16.3685 41.9374 15.4801C41.8916 15.4336 41.5955 15.1987 41.5443 15.1592C42.2847 12.8521 43.9108 8.7358 39.8616 5.03574C37.6674 3.03106 34.6198 2.02407 31.8656 1.2287C23.7349 -1.11784 17.995 2.1729 15.3458 7.64508C15.1546 8.03346 13.9189 10.4916 15.4158 15.1592C15.2704 15.2429 15.1385 15.3499 15.0281 15.4801C14.25 16.3661 14.7562 18.2546 15.0388 19.3685Z" fill="#0F244B"/>
<path d="M57.0897 53.4667C56.8635 49.1992 56.5835 42.4363 52.2678 36.9037C52.2678 36.9037 51.0374 35.4548 48.119 34.492C48.119 34.492 41.7814 32.8245 38.863 31.0222L37.5303 31.8106L37.6784 39.2944L29.6769 57.7458C29.5019 58.1505 29.055 58.4179 28.5569 58.4179C28.0589 58.4179 27.6119 58.1505 27.4369 57.7458L19.4382 39.2944C19.4382 39.2944 19.5863 31.8338 19.5836 31.8106C19.6024 31.8734 18.2482 31.0222 18.2482 31.0222C15.3352 32.8245 8.99485 34.492 8.99485 34.492C6.07642 35.4548 4.84605 36.9037 4.84605 36.9037C0.53302 42.4363 0.247639 49.1992 0.0214873 53.4667C-0.134665 56.4155 0.581481 57.5156 1.4807 57.8295C12.6429 61.6993 44.4629 61.6993 55.6278 57.8295C56.5324 57.5179 57.2431 56.4155 57.0897 53.4667Z" fill="#0F244B"/>
<path d="M28.8421 34.9898L28.4814 34.9967C27.3183 34.9967 26.1445 34.8014 24.9922 34.4572L28.1637 38.6503L25.318 41.0224L28.2471 56.3878C28.2714 56.5204 28.4033 56.6157 28.5595 56.6157C28.7129 56.6157 28.8448 56.5204 28.8718 56.3878L31.801 41.0224L28.9525 38.6503L32.0783 34.52C31.0579 34.7781 29.9783 34.9502 28.8421 34.9898Z" fill="#0F244B"/>
</svg>
