<svg width="53" height="60" viewBox="0 0 53 60" fill="none" xmlns="http://www.w3.org/2000/svg">
<path fill-rule="evenodd" clip-rule="evenodd" d="M11.9307 58.5512C12.0944 59.3993 12.8902 59.9944 13.7866 59.9934L39.2068 60C40.1934 60 41.0036 59.299 41.0916 58.404C42.1431 53.0614 43.3578 47.7498 44.4885 42.4222H8.50781C9.64491 47.7994 10.8717 53.1594 11.9307 58.5512Z" fill="#0F244B"/>
<path fill-rule="evenodd" clip-rule="evenodd" d="M6.814 18.4151L10.5139 16.1155C11.3795 15.5771 11.6113 14.4887 11.0315 13.6848C10.4517 12.881 9.27974 12.6658 8.41408 13.2043L4.00137 15.9468C3.42102 16.2471 3.02832 16.8225 3.02832 17.4833V22.7342H6.814V18.4151Z" fill="#0F244B"/>
<path fill-rule="evenodd" clip-rule="evenodd" d="M42.4859 16.1157L46.1857 18.4152V22.7344H49.9714V17.4835C49.9714 16.8228 49.5787 16.2473 48.9984 15.9469L44.5857 13.2043C43.72 12.6658 42.5481 12.881 41.9683 13.6849C41.3884 14.4889 41.6201 15.5772 42.4859 16.1157Z" fill="#0F244B"/>
<path d="M26.5001 12.762C30.2949 12.762 33.3712 9.90517 33.3712 6.38102C33.3712 2.85688 30.2949 0 26.5001 0C22.7052 0 19.6289 2.85688 19.6289 6.38102C19.6289 9.90517 22.7052 12.762 26.5001 12.762Z" fill="#0F244B"/>
<path fill-rule="evenodd" clip-rule="evenodd" d="M51.1071 26.2503H1.89286C0.847495 26.2503 0 27.0373 0 28.0081V37.1487C0 38.1195 0.847495 38.9065 1.89286 38.9065H51.1071C52.1525 38.9065 53 38.1195 53 37.1487V28.0081C53 27.0373 52.1525 26.2503 51.1071 26.2503ZM28.3859 32.705C28.3158 33.6165 27.4993 34.3362 26.4999 34.3362C25.4914 34.3362 24.6694 33.6031 24.6126 32.6797C24.6104 32.6459 24.607 32.6125 24.607 32.5784C24.607 32.544 24.6104 32.5103 24.6126 32.4765C24.6682 31.5789 25.4473 30.8634 26.4175 30.8245C26.445 30.8234 26.4721 30.8206 26.4999 30.8206C26.5275 30.8206 26.5544 30.8234 26.5816 30.8245C27.543 30.8627 28.3171 31.5651 28.3858 32.4509C28.3891 32.4932 28.3927 32.5354 28.3927 32.5784C28.3929 32.6212 28.3892 32.663 28.3859 32.705Z" fill="#0F244B"/>
<path fill-rule="evenodd" clip-rule="evenodd" d="M41.0121 18.8696C41.0121 18.1007 40.4803 17.4471 39.7397 17.2085C37.6032 16.4025 35.4466 15.7157 33.2544 15.2206C31.6415 14.8562 30.0218 14.602 28.3931 14.4882V17.642C28.3931 18.6128 27.5456 19.3998 26.5002 19.3998C25.4548 19.3998 24.6073 18.6128 24.6073 17.642V14.4869C20.6643 14.76 16.8816 15.8439 13.1713 17.2492C12.4403 17.5254 11.9972 18.1793 11.997 18.8696L11.9883 22.7342H41.0121V18.8696Z" fill="#0F244B"/>
</svg>
