<svg width="25" height="25" viewBox="0 0 25 25" fill="none" xmlns="http://www.w3.org/2000/svg">
<path d="M10.6912 21.3104C13.0633 21.31 15.367 20.5185 17.2355 19.0622L23.1103 24.9172L25 23.0339L19.1252 17.1789C20.5872 15.3164 21.3818 13.0199 21.3824 10.6552C21.3824 4.7802 16.586 0 10.6912 0C4.79633 0 0 4.7802 0 10.6552C0 16.5302 4.79633 21.3104 10.6912 21.3104ZM10.6912 2.66381C15.1133 2.66381 18.7096 6.24796 18.7096 10.6552C18.7096 15.0625 15.1133 18.6466 10.6912 18.6466C6.26904 18.6466 2.6728 15.0625 2.6728 10.6552C2.6728 6.24796 6.26904 2.66381 10.6912 2.66381Z" fill="#11698E"/>
</svg>
