<svg width="10" height="10" viewBox="0 0 10 10" fill="none" xmlns="http://www.w3.org/2000/svg">
<path d="M8.33333 6.93878C7.9375 6.93878 7.57222 7.06633 7.28611 7.27934L4.40833 5.36735C4.45652 5.12445 4.45652 4.87555 4.40833 4.63265L7.28611 2.72066C7.57222 2.93367 7.9375 3.06122 8.33333 3.06122C9.25278 3.06122 10 2.375 10 1.53061C10 0.686225 9.25278 0 8.33333 0C7.41389 0 6.66667 0.686225 6.66667 1.53061C6.66667 1.67857 6.68889 1.82015 6.73194 1.95536L3.99861 3.77296C3.59306 3.27934 2.94861 2.95918 2.22222 2.95918C0.994444 2.95918 0 3.87245 0 5C0 6.12755 0.994444 7.04082 2.22222 7.04082C2.94861 7.04082 3.59306 6.72066 3.99861 6.22704L6.73194 8.04464C6.68889 8.17985 6.66667 8.3227 6.66667 8.46939C6.66667 9.31378 7.41389 10 8.33333 10C9.25278 10 10 9.31378 10 8.46939C10 7.625 9.25278 6.93878 8.33333 6.93878ZM8.33333 0.867347C8.73194 0.867347 9.05556 1.16454 9.05556 1.53061C9.05556 1.89668 8.73194 2.19388 8.33333 2.19388C7.93472 2.19388 7.61111 1.89668 7.61111 1.53061C7.61111 1.16454 7.93472 0.867347 8.33333 0.867347ZM2.22222 6.12245C1.54861 6.12245 1 5.61862 1 5C1 4.38138 1.54861 3.87755 2.22222 3.87755C2.89583 3.87755 3.44444 4.38138 3.44444 5C3.44444 5.61862 2.89583 6.12245 2.22222 6.12245ZM8.33333 9.13265C7.93472 9.13265 7.61111 8.83546 7.61111 8.46939C7.61111 8.10332 7.93472 7.80612 8.33333 7.80612C8.73194 7.80612 9.05556 8.10332 9.05556 8.46939C9.05556 8.83546 8.73194 9.13265 8.33333 9.13265Z" fill="#B0B0B0"/>
</svg>
