<svg width="10" height="10" viewBox="0 0 10 10" fill="none" xmlns="http://www.w3.org/2000/svg">
<path d="M5 0C2.23854 0 0 2.23854 0 5C0 7.76146 2.23854 10 5 10C7.76146 10 10 7.76146 10 5C10 2.23854 7.76146 0 5 0ZM7.03385 4.09583C7.03594 4.13854 7.03646 4.18125 7.03646 4.22292C7.03646 5.525 6.04635 7.02552 4.2349 7.02552C3.69963 7.02641 3.1755 6.87268 2.72552 6.58281C2.80208 6.59219 2.88073 6.59583 2.96042 6.59583C3.42187 6.59583 3.84635 6.43906 4.18333 6.17448C3.97798 6.17045 3.779 6.10245 3.61412 5.97996C3.44925 5.85747 3.32669 5.68659 3.26354 5.49115C3.41102 5.51919 3.56294 5.51331 3.70781 5.47396C3.48492 5.42889 3.28448 5.30811 3.14047 5.13212C2.99647 4.95612 2.91776 4.73574 2.91771 4.50833V4.49635C3.05052 4.56979 3.2026 4.61458 3.36406 4.61979C3.1551 4.48069 3.00718 4.26702 2.95054 4.02246C2.89391 3.77791 2.93284 3.52096 3.05937 3.30417C3.30675 3.60833 3.61524 3.85716 3.96488 4.03454C4.31452 4.21191 4.69751 4.31389 5.08906 4.33385C5.03928 4.12256 5.06071 3.90073 5.15 3.70287C5.2393 3.505 5.39147 3.34218 5.58285 3.23972C5.77423 3.13726 5.9941 3.1009 6.20828 3.13629C6.42246 3.17168 6.61894 3.27684 6.76719 3.43542C6.98759 3.39181 7.19895 3.31097 7.39219 3.19635C7.31873 3.42455 7.16493 3.61832 6.95937 3.74167C7.15461 3.71815 7.34524 3.66567 7.525 3.58594C7.39296 3.7838 7.22663 3.95648 7.03385 4.09583Z" fill="#0F244B"/>
</svg>
